# xmcd
#
# Track frame offsets: 
#        150
#        30582
#        44450
#        77740
#        104840
#        131627
#        176027
#        210352
#        245567
#        287727
#
# Disc length: 3924 seconds
#
# Revision: 2
# Processed by: cddbd v1.5.2PL0 Copyright (c) Steve Scherf et al.
# Submitted via: ExactAudioCopyFreeDBPlugin 1.0
#
DISCID=8f0f520a
DTITLE=Arturo Benedetti Michelangeli - Clementi_Chopin_Ravel-Recital
DYEAR=1996
DGENRE=Classical
TTITLE0=Piano Sonata in Bf, Op. 12-1: i. Presto
TTITLE1=Piano Sonata in Bf, Op. 12-1: ii. Largetto con espressione
TTITLE2=Piano Sonata in Bf, Op. 12-1: iii. Allegretto (with var. 1, 2,
TTITLE2=4, 5, 6, 10, 8, 9, coda)
TTITLE3=Gaspard de la nuit: i. Ondine: Lent
TTITLE4=Gaspard de la nuit: ii. Le Gibet. Tres lent
TTITLE5=Gaspard de la nuit: iii. Scarbo. Modéré
TTITLE6=Piano Sonata No. 2 in bf "Funeral March", Op. 35: i. Grave. D
TTITLE6=oppio movimento agitato
TTITLE7=Piano Sonata No. 2 in bf "Funeral March", Op. 35: ii. Scherzo
TTITLE7=Pia lento
TTITLE8=Piano Sonata No. 2 in bf "Funeral March", Op. 35: iii. Marche
TTITLE8=funebre. Lento
TTITLE9=Piano Sonata No. 2 in bf "Funeral March", Op. 35: iv. Finale:
TTITLE9=Presto
EXTD=Music and Arts CD 955
EXTT0=
EXTT1=
EXTT2=
EXTT3=
EXTT4=
EXTT5=
EXTT6=
EXTT7=
EXTT8=
EXTT9=
PLAYORDER=
